<svg xmlns="http://www.w3.org/2000/svg" viewBox="0 0 1200 800" fill="none">
  <defs>
    <linearGradient id="cd-bg" x1="0" y1="0" x2="1200" y2="800" gradientUnits="userSpaceOnUse">
      <stop stop-color="#030712"/>
      <stop offset="1" stop-color="#0369a1"/>
    </linearGradient>
    <linearGradient id="cd-accent" x1="720" y1="300" x2="980" y2="610" gradientUnits="userSpaceOnUse">
      <stop stop-color="#38bdf8"/>
      <stop offset="1" stop-color="#e0f2fe"/>
    </linearGradient>
  </defs>
  <rect width="1200" height="800" rx="40" fill="url(#cd-bg)"/>
  <rect x="132" y="104" width="936" height="592" rx="30" fill="#020617" fill-opacity="0.55"/>
  <rect x="168" y="142" width="864" height="516" rx="22" fill="#0b1220"/>
  <rect x="168" y="142" width="864" height="56" rx="22" fill="#111827"/>
  <circle cx="206" cy="170" r="8" fill="#ef4444"/>
  <circle cx="232" cy="170" r="8" fill="#f59e0b"/>
  <circle cx="258" cy="170" r="8" fill="#22c55e"/>
  <rect x="218" y="234" width="470" height="280" rx="18" fill="#0f172a" stroke="#1e293b" stroke-width="2"/>
  <rect x="252" y="268" width="236" height="18" rx="9" fill="#f8fafc" fill-opacity="0.24"/>
  <rect x="252" y="302" width="310" height="14" rx="7" fill="#f8fafc" fill-opacity="0.16"/>
  <rect x="252" y="330" width="266" height="14" rx="7" fill="#f8fafc" fill-opacity="0.16"/>
  <rect x="252" y="418" width="176" height="42" rx="21" fill="#0ea5e9"/>
  <rect x="728" y="234" width="260" height="340" rx="18" fill="url(#cd-accent)" fill-opacity="0.95"/>
  <path d="M770 430C802 365 844 332 900 332C955 332 996 365 1026 430" stroke="#0f172a" stroke-width="16" stroke-linecap="round"/>
  <rect x="782" y="424" width="244" height="42" rx="21" fill="#0f172a" fill-opacity="0.9"/>
  <circle cx="816" cy="492" r="30" fill="#e2e8f0"/>
  <circle cx="816" cy="492" r="14" fill="#0f172a"/>
  <circle cx="988" cy="492" r="30" fill="#e2e8f0"/>
  <circle cx="988" cy="492" r="14" fill="#0f172a"/>
  <text x="218" y="392" fill="#f8fafc" font-family="Arial, sans-serif" font-size="46" font-weight="700">Car Detailing</text>
  <text x="218" y="550" fill="#7dd3fc" font-family="Arial, sans-serif" font-size="20">polishing • interior • ceramic protection</text>
</svg>