<svg xmlns="http://www.w3.org/2000/svg" viewBox="0 0 1200 800" fill="none">
  <defs>
    <linearGradient id="ig-bg" x1="0" y1="0" x2="1200" y2="800" gradientUnits="userSpaceOnUse">
      <stop stop-color="#fff7ed"/>
      <stop offset="1" stop-color="#dcfce7"/>
    </linearGradient>
  </defs>
  <rect width="1200" height="800" rx="40" fill="url(#ig-bg)"/>
  <rect x="132" y="104" width="936" height="592" rx="30" fill="#ffffff" fill-opacity="0.8"/>
  <rect x="168" y="146" width="864" height="516" rx="22" fill="#f8fafc"/>
  <rect x="168" y="146" width="864" height="56" rx="22" fill="#e2e8f0"/>
  <circle cx="206" cy="174" r="8" fill="#ef4444"/>
  <circle cx="232" cy="174" r="8" fill="#f59e0b"/>
  <circle cx="258" cy="174" r="8" fill="#22c55e"/>
  <rect x="220" y="238" width="388" height="372" rx="20" fill="#a7f3d0"/>
  <rect x="642" y="238" width="338" height="164" rx="20" fill="#fde68a"/>
  <rect x="642" y="428" width="338" height="182" rx="20" fill="#fecdd3"/>
  <circle cx="414" cy="374" r="104" fill="#fb7185"/>
  <circle cx="414" cy="374" r="66" fill="#f59e0b"/>
  <circle cx="414" cy="374" r="26" fill="#fff7ed"/>
  <rect x="690" y="286" width="228" height="18" rx="9" fill="#1f2937" fill-opacity="0.5"/>
  <rect x="690" y="322" width="154" height="14" rx="7" fill="#1f2937" fill-opacity="0.3"/>
  <rect x="690" y="486" width="228" height="18" rx="9" fill="#1f2937" fill-opacity="0.5"/>
  <rect x="690" y="522" width="176" height="14" rx="7" fill="#1f2937" fill-opacity="0.3"/>
  <text x="220" y="544" fill="#1f2937" font-family="Arial, sans-serif" font-size="42" font-weight="700">Igre Bez Telefona</text>
  <text x="220" y="576" fill="#475569" font-family="Arial, sans-serif" font-size="20">edukativni sadrzaj za roditelje i decu</text>
</svg>